<svg preserveAspectRatio="none" width="100%" height="100%" overflow="visible" style="display: block;" viewBox="0 0 223.068 75.2853" fill="none" xmlns="http://www.w3.org/2000/svg">
<g id="Layer_1" clip-path="url(#clip0_0_45)">
<path id="Vector" d="M215.868 58.3641L208.405 74.3711H210.857L212.54 70.7141L213.487 68.5757L215.83 63.4544L218.064 68.5757L218.971 70.7141H218.987L220.57 74.3711H223.06L215.861 58.3641H215.868ZM100.813 74.3711H103.264L104.947 70.7141L105.894 68.5757L108.237 63.4544L110.471 68.5757L111.379 70.7141H111.394L112.977 74.3711H115.467L108.268 58.3641L100.805 74.3711H100.813ZM166.599 74.3711H169.05L170.734 70.7141L171.68 68.5757L174.023 63.4544L176.257 68.5757L177.165 70.7141H177.18L178.763 74.3711H181.253L174.054 58.3641L166.591 74.3711H166.599ZM1.90066 61.7809C0.628381 63.284 0 64.9963 0 66.91C0 69.0483 0.760264 70.8768 2.27303 72.3876C3.80132 73.8907 5.63992 74.6423 7.78882 74.6423C9.22402 74.6423 10.5894 74.2781 11.8927 73.5421V70.7993C11.5203 71.1093 11.1712 71.3804 10.8299 71.5974C10.4963 71.8143 10.1705 71.9925 9.86016 72.1242C9.30159 72.3876 8.61891 72.5116 7.81986 72.5116C6.2683 72.5116 4.96499 71.9693 3.89441 70.8846C2.82384 69.7999 2.29631 68.4673 2.29631 66.8867C2.29631 65.3062 2.83159 63.9348 3.89441 62.8269C4.95723 61.7112 6.26054 61.1611 7.8121 61.1611C9.21626 61.1611 10.5816 61.7112 11.8927 62.8114V60.1229C10.6282 59.3868 9.32487 59.0227 7.96725 59.0227C5.48476 59.0227 3.46773 59.9447 1.90066 61.7809ZM21.0003 74.3711H23.4518L25.1353 70.7141L26.0817 68.5757L28.4246 63.4544L30.6588 68.5757L31.5665 70.7141H31.582L33.1646 74.3711H35.6548L28.4556 58.3641L20.9926 74.3711H21.0003ZM56.1432 69.7766L45.1504 58.2867V74.3711H47.4234V63.8263L58.4162 75.2853V59.3094H56.1432V69.7766ZM88.7802 65.4146L87.2752 64.8026C86.1813 64.3532 85.6383 63.7644 85.6383 63.0283C85.6383 62.4937 85.8477 62.0521 86.2589 61.7034C86.6778 61.347 87.1976 61.1688 87.8337 61.1688C88.3458 61.1688 88.7647 61.2696 89.0905 61.4788C89.4008 61.6647 89.7344 62.0521 90.0757 62.6487L91.9221 61.5562C90.9446 59.8672 89.587 59.0227 87.8493 59.0227C86.5615 59.0227 85.4831 59.4101 84.6143 60.1771C83.7454 60.9364 83.3187 61.8816 83.3187 63.0128C83.3187 64.6941 84.3505 65.9647 86.4141 66.8402L87.8648 67.4446C88.2449 67.6073 88.5707 67.7777 88.8423 67.9559C89.1138 68.1341 89.3387 68.3278 89.5094 68.5292C89.6801 68.7307 89.812 68.9554 89.8896 69.2033C89.9749 69.4512 90.0137 69.7147 90.0137 70.0091C90.0137 70.7374 89.7809 71.3417 89.3077 71.8143C88.8423 72.2869 88.2449 72.5271 87.5389 72.5271C86.639 72.5271 85.9564 72.2017 85.4909 71.5509C85.2349 71.21 85.0487 70.5979 84.9478 69.7147L82.6438 70.2183C82.8532 71.6206 83.373 72.7131 84.2186 73.4878C85.072 74.2626 86.1503 74.65 87.4614 74.65C88.8423 74.65 89.9982 74.1929 90.9291 73.2864C91.8523 72.3799 92.3177 71.241 92.3177 69.8541C92.3177 68.8237 92.0385 67.9482 91.4644 67.2354C90.8981 66.5226 89.9982 65.9182 88.7802 65.4301V65.4146ZM136.103 59.3094H133.062L127.189 65.3217V59.3094H124.916V74.3711H127.189V68.1419L127.654 67.677L133.085 74.3788H136.134L129.276 66.1352L136.095 59.3171L136.103 59.3094ZM154.559 65.2054H148.057V59.3171H145.777V74.3788H148.057V67.3438H154.559V74.3788H156.832V59.3171H154.559V65.2054ZM197.987 66.4838C198.6 65.7168 198.902 64.8026 198.902 63.7334C198.902 62.3698 198.413 61.2696 197.436 60.4405C196.551 59.689 195.109 59.3171 193.123 59.3171H190.454V74.3788H192.727V68.2116H193.138L197.444 74.3788H200.229L195.558 67.9637C196.559 67.7467 197.366 67.2586 197.979 66.4916L197.987 66.4838ZM192.735 66.2282V61.4478H193.549C195.644 61.4478 196.691 62.2148 196.691 63.7566C196.691 65.3991 195.613 66.2282 193.456 66.2282H192.735Z" fill="var(--fill-0, white)"/>
<path id="Vector_2" d="M95.4597 32.1069H119.571L95.4597 8.02672V32.1069ZM95.9096 9.11141L118.485 31.6575H95.9096V9.11141ZM127.608 0H119.571L127.608 8.02672V0ZM103.179 0L127.608 24.3978V23.7625L103.815 0H103.179Z" fill="var(--fill-0, white)"/>
</g>
<defs>
<clipPath id="clip0_0_45">
<rect width="223.068" height="75.2853" fill="white"/>
</clipPath>
</defs>
</svg>
