<svg preserveAspectRatio="none" width="100%" height="100%" overflow="visible" style="display: block;" viewBox="0 0 223.068 75.2853" fill="none" xmlns="http://www.w3.org/2000/svg">
<g id="Layer_1" clip-path="url(#clip0_0_48)">
<path id="Vector" d="M102.99 74.4233H111.339V72.2799H105.276V67.2319H111.161V65.0884H105.276V61.4538H111.339V59.3104H102.99V74.4233ZM74.2431 69.7792L63.251 58.293V74.3767H65.5287V63.8303L76.5208 75.2932V59.3181H74.2431V69.7869V69.7792ZM176.429 54.2934C177.704 54.2934 178.738 55.3263 178.738 56.6H180.308C180.308 54.4643 178.567 52.7246 176.429 52.7246C174.291 52.7246 172.55 54.4643 172.55 56.6H174.12C174.12 55.3263 175.154 54.2934 176.429 54.2934ZM39.1134 74.369H41.5622L43.2413 70.7111L44.1897 68.5754L46.5296 63.4575L48.7684 68.5754L49.678 70.7111H49.6935L51.2716 74.369H53.7592L46.5607 58.3629L39.1056 74.369H39.1134ZM20.0288 61.78C18.7617 63.2789 18.1242 64.9952 18.1242 66.9135C18.1242 69.0569 18.8861 70.882 20.402 72.3964C21.9256 73.8952 23.768 74.6486 25.9213 74.6486C27.3517 74.6486 28.7199 74.2836 30.0181 73.5458V70.8043C29.645 71.115 29.2951 71.379 28.9609 71.6042C28.6266 71.8217 28.3001 72.0003 27.9892 72.1323C27.4294 72.3964 26.7531 72.5206 25.9447 72.5206C24.3977 72.5206 23.0917 71.977 22.0189 70.8897C20.9539 69.8025 20.4175 68.4667 20.4175 66.8902C20.4175 65.3136 20.9539 63.939 22.0189 62.8362C23.0761 61.7256 24.3821 61.1665 25.9369 61.1665C27.3439 61.1665 28.7043 61.7179 30.0181 62.8129V60.118C28.7588 59.3803 27.445 59.0152 26.0924 59.0152C23.6125 59.0152 21.5913 59.9394 20.0288 61.7722V61.78ZM133.122 66.5018C133.736 65.733 134.039 64.8088 134.039 63.7449C134.039 62.378 133.549 61.2752 132.57 60.4365C131.683 59.6831 130.237 59.3104 128.24 59.3104H125.565V74.4233H127.851V68.2415H128.263L132.585 74.4233H135.376L130.696 67.9852C131.699 67.7677 132.515 67.2785 133.122 66.5096V66.5018ZM127.859 66.2533V61.4616H128.675C130.774 61.4616 131.831 62.2382 131.831 63.7837C131.831 65.4379 130.751 66.2611 128.589 66.2611H127.866L127.859 66.2533ZM202.658 59.3104V65.2204H196.136V59.3104H193.85V74.4233H196.136V67.3639H202.658V74.4233H204.943V59.3104H202.658ZM168.966 74.369H171.415L173.094 70.7111L174.043 68.5754L176.383 63.4575L178.621 68.5754L179.531 70.7111H179.546L181.125 74.369H183.612L176.414 58.3629L168.959 74.369H168.966ZM153.823 68.6997H157.593C157.492 69.7636 156.987 70.68 156.093 71.4411C155.199 72.1944 154.188 72.575 153.069 72.575C151.748 72.575 150.527 72.0702 149.392 71.0606C148.187 69.9733 147.581 68.5832 147.581 66.8979C147.581 65.2127 148.125 63.9079 149.205 62.8284C150.286 61.7256 151.631 61.1742 153.232 61.1742C155.012 61.1742 156.528 61.9975 157.764 63.6517L159.389 62.0984C158.441 61.0189 157.477 60.2345 156.497 59.753C155.471 59.2715 154.367 59.0308 153.186 59.0308C150.986 59.0308 149.12 59.7996 147.581 61.3296C146.049 62.8595 145.28 64.7156 145.28 66.9057C145.28 69.0957 146.034 70.8897 147.542 72.4274C149.05 73.9574 150.861 74.7185 152.976 74.7185C155.09 74.7185 156.933 73.9263 158.332 72.3498C158.954 71.6431 159.389 70.8897 159.653 70.082C159.918 69.2045 160.058 68.2026 160.058 67.0688V66.5717H153.808V68.7152L153.823 68.6997Z" fill="var(--fill-0, white)"/>
<path id="Vector_2" d="M111.534 6.42263C106.209 6.42263 101.894 10.7329 101.894 16.0527V28.8979L102.337 28.6727V16.0527C102.337 10.9891 106.465 6.8653 111.534 6.8653C116.602 6.8653 120.73 10.9891 120.73 16.0527V28.6727L121.173 28.8979V16.0527C121.173 10.7329 116.859 6.42263 111.534 6.42263ZM111.534 12.8453C109.761 12.8453 108.323 14.282 108.323 16.0527V25.6827H114.752V16.0527C114.752 14.282 113.314 12.8453 111.542 12.8453H111.534ZM111.534 0C102.656 0 95.4654 7.19148 95.4654 16.0527V32.1054L95.9085 31.8802V16.0449C95.9085 7.44 102.92 0.434906 111.534 0.434906C120.147 0.434906 127.159 7.44 127.159 16.0449V31.8802L127.602 32.1054V16.0527C127.602 7.18371 120.404 0 111.534 0Z" fill="var(--fill-0, white)"/>
</g>
<defs>
<clipPath id="clip0_0_48">
<rect width="223.068" height="75.2853" fill="white"/>
</clipPath>
</defs>
</svg>
