<svg preserveAspectRatio="none" width="100%" height="100%" overflow="visible" style="display: block;" viewBox="0 0 655 50" fill="none" xmlns="http://www.w3.org/2000/svg">
<g id="Layer_1" clip-path="url(#clip0_0_63)">
<path id="Vector" d="M633.858 0.225632L611.95 47.2924H619.152L624.084 36.5373L626.866 30.2647L633.753 15.2076L640.324 30.2647L643.001 36.5373H643.046L647.692 47.2924H655L633.858 0.225632ZM296.028 47.3075H303.231L308.163 36.5523L310.945 30.2798L317.831 15.2226L324.402 30.2798L327.079 36.5523H327.124L331.77 47.3075H339.078L317.937 0.225632L296.028 47.2924V47.3075ZM489.175 47.3075H496.377L501.31 36.5523L504.091 30.2798L510.978 15.2226L517.549 30.2798L520.226 36.5523H520.271L524.917 47.3075H532.225L511.083 0.225632L489.175 47.2924V47.3075ZM5.59366 10.2738C1.86455 14.6811 0 19.7202 0 25.361C0 31.6486 2.22544 37.0337 6.67631 41.4862C11.1573 45.9085 16.5554 48.1197 22.8859 48.1197C27.0962 48.1197 31.096 47.0367 34.9303 44.8706V36.8081C33.8477 37.7256 32.8101 38.5078 31.8177 39.1697C30.8403 39.8165 29.878 40.3279 28.9607 40.719C27.3217 41.4862 25.3219 41.8622 22.9611 41.8622C18.42 41.8622 14.5706 40.2677 11.443 37.0788C8.30028 33.8899 6.73646 29.9639 6.73646 25.3159C6.73646 20.6679 8.30028 16.6366 11.443 13.3875C14.5556 10.1233 18.3899 8.48375 22.9461 8.48375C27.0812 8.48375 31.0659 10.0933 34.9303 13.3273V5.40012C31.2163 3.23405 27.3819 2.15102 23.4122 2.15102C16.1194 2.15102 10.1949 4.8586 5.6087 10.2738H5.59366ZM61.6656 47.3075H68.8682L73.8003 36.5523L76.5821 30.2798L83.4689 15.2226L90.0399 30.2798L92.7165 36.5523H92.7616L97.4079 47.3075H104.731L83.5742 0.225632L61.6656 47.2924V47.3075ZM164.848 33.7996L132.549 0V47.3075H139.225V16.2906L171.509 50V3.00842H164.833V33.7846L164.848 33.7996ZM260.692 20.9687L256.271 19.1637C253.068 17.84 251.459 16.0951 251.459 13.944C251.459 12.3797 252.076 11.071 253.294 10.0481C254.527 8.99519 256.06 8.46871 257.91 8.46871C259.414 8.46871 260.647 8.76955 261.609 9.38628C262.526 9.9278 263.489 11.071 264.511 12.8309L269.924 9.61191C267.052 4.63297 263.068 2.15102 257.97 2.15102C254.181 2.15102 251.023 3.27918 248.482 5.5355C245.941 7.77677 244.663 10.5596 244.663 13.8839C244.663 18.8177 247.7 22.5632 253.76 25.1354L258.03 26.9103C259.143 27.3917 260.09 27.8881 260.902 28.4146C261.714 28.941 262.361 29.4976 262.872 30.0993C263.383 30.701 263.744 31.3628 263.985 32.0848C264.225 32.8069 264.346 33.589 264.346 34.4464C264.346 36.5824 263.654 38.3574 262.286 39.7563C260.902 41.1552 259.173 41.8472 257.098 41.8472C254.467 41.8472 252.452 40.8995 251.068 38.9741C250.301 37.9813 249.775 36.1763 249.459 33.589L242.693 35.0782C243.309 39.2148 244.843 42.4037 247.309 44.6901C249.82 46.9615 252.978 48.1047 256.827 48.1047C260.887 48.1047 264.271 46.7659 267.007 44.0884C269.729 41.426 271.082 38.0716 271.082 33.9952C271.082 30.9567 270.255 28.3845 268.586 26.2936C266.917 24.2028 264.286 22.4278 260.692 20.9687ZM399.631 3.00842H390.714L373.482 20.6829V3.00842H366.806V47.3075H373.482V28.9711L374.866 27.5872L390.805 47.2924H399.751L379.617 23.0596L399.631 3.00842ZM453.809 20.3369H434.712V3.00842H428.021V47.3075H434.712V26.6245H453.809V47.3075H460.485V3.00842H453.809V20.3369ZM581.35 24.0975C583.139 21.8412 584.042 19.1486 584.042 16.0048C584.042 11.9886 582.598 8.75451 579.741 6.30265C577.14 4.1065 572.914 3.00842 567.065 3.00842H559.231V47.3075H565.907V29.1817H567.11L579.756 47.3075H587.936L574.223 28.4296C577.17 27.7978 579.531 26.3538 581.335 24.0975H581.35ZM565.922 23.3604V9.29603H568.298C574.448 9.29603 577.531 11.5674 577.531 16.0951C577.531 20.9386 574.373 23.3604 568.043 23.3604H565.922Z" fill="var(--fill-0, white)"/>
</g>
<defs>
<clipPath id="clip0_0_63">
<rect width="655" height="50" fill="white"/>
</clipPath>
</defs>
</svg>
