<svg preserveAspectRatio="none" width="100%" height="100%" overflow="visible" style="display: block;" viewBox="0 0 495 400" fill="none" xmlns="http://www.w3.org/2000/svg">
<g id="Layer_1" clip-path="url(#clip0_0_89)">
<path id="Vector" fill-rule="evenodd" clip-rule="evenodd" d="M456.422 112.897C454.706 112.864 451.787 114.168 450.539 113.087C448.979 110.143 451.285 105.505 449.658 102.64C449.157 101.882 448.221 101.391 447.341 101.023C437.445 96.7421 429.69 86.5518 428.921 74.5106C428.642 70.1847 429.322 65.2791 431.038 60.8974C432.108 58.1547 434.526 59.5372 436.253 60.7971C441.981 65.1676 450.16 57.3297 452.477 51.6882C452.477 51.5656 452.411 51.4875 452.299 51.4652C451.92 51.3649 450.873 52.0227 449.747 52.5467C448.199 53.2825 446.003 53.8511 444.388 53.015C442.861 52.2345 441.769 50.6625 440.744 49.3023C439.284 47.2843 441.011 44.8537 442.36 43.2037C443.24 41.9549 444.711 40.9181 444.934 39.346C445 37.852 443.084 37.1831 441.546 36.2577C439.195 34.9867 436.788 33.6822 435.05 31.1848C434.381 30.3486 433.378 28.4756 432.264 29.1334C431.651 29.6351 431.261 30.7834 430.292 30.5493C426.871 30.2706 415.694 28.6985 409.12 28.1076C408.161 28.0296 407.125 28.1076 406.323 28.5536C405.197 29.1334 404.373 30.4601 403.392 31.5304C401.877 33.2363 399.18 34.8195 396.94 33.9944C395.904 33.6488 395.168 32.7346 394.6 31.8092C390.789 25.3426 385.485 18.3632 377.551 16.3118C376.66 16.0553 375.412 15.732 374.999 14.9627L374.955 14.8958C373.896 11.7963 379.044 8.98674 378.554 4.80579C378.398 2.66514 376.247 1.85125 374.42 1.19345C372.693 0.580243 370.876 -0.07756 369.015 0.0339321C366.932 0.123126 365.015 1.30494 363.277 1.85125C356.468 4.86154 346.562 -0.768811 349.671 7.31436C350.462 8.85295 351.342 12.2869 348.479 10.6145C347.186 9.82293 346.217 8.02791 344.969 7.00219C344.255 6.38898 343.286 5.86497 342.339 6.11025C341.236 6.44472 340.801 7.62654 340.679 8.70801C340.478 10.6814 340.857 12.7775 341.314 14.9404C341.782 17.2149 342.517 19.3778 341.024 21.0502C338.662 23.1574 335.285 24.5956 332.176 25.0305C327.106 24.9747 326.326 19.7457 325.691 15.431C325.412 12.365 321.724 10.3581 319.284 12.3315C317.1 14.5279 318.47 20.1248 316.186 22.3658C313.656 24.1274 312.208 19.9799 310.28 19.0991C304.073 15.6317 304.697 22.678 299.716 23.4138C296.596 24.3615 293.498 18.9318 293.465 21.8975C293.621 22.9232 294.279 24.3615 293.732 25.298C292.373 27.2937 289.777 27.7063 287.414 28.4979C285.709 28.9327 283.893 29.256 282.734 30.3152C281.341 31.6308 280.272 33.7603 279.971 35.5999C279.759 37.6625 282.422 39.5467 279.001 40.0596C275.725 40.4832 272.661 41.2637 271.658 44.8872C270.811 46.5484 270.499 48.834 268.928 49.882C267.568 50.406 267.167 47.8083 267.301 46.8383C268.449 42.2671 267.546 42.111 263.234 41.0073C259.323 40.4498 257.161 35.5107 253.55 35.9009C248.347 37.7517 244.279 46.738 244.134 52.346C244.09 53.2268 244.157 54.1968 243.566 54.8546C242.597 55.8246 240.992 55.635 239.733 55.936C236.747 56.2594 235.22 57.8983 232.568 58.2551C230.228 58.3777 227.308 56.9729 225.548 55.3674C223.787 53.1376 221.525 52.8589 218.84 53.394C209.635 53.4386 206.983 63.105 203.473 70.7422C202.615 72.5595 201.869 75.0235 200.453 75.8374C197.968 76.8631 194.314 75.5809 191.628 75.1907C187.338 73.9197 188.508 65.5355 186.079 62.2911C183.115 59.7379 179.983 63.4618 178.88 66.3048C176.406 70.4635 173.275 78.8923 168.317 71.8906C167.314 70.7868 167.124 72.1135 166.991 72.9051C166.322 76.8297 165.798 83.9428 165.152 87.6444C163.347 90.9 157.084 86.2173 154.232 87.3657C152.95 87.6332 151.802 88.2353 150.588 88.7482C149.128 89.406 147.178 89.93 146.253 90.9668C144.415 92.6615 147.055 95.6495 144.838 97.0878C143.167 98.0577 140.436 98.8828 138.464 99.8639C133.94 102.228 130.307 102.428 128.246 106.241C126.552 109.14 125.416 112.496 122.819 114.782C119.019 117.937 114.796 119.553 111.453 123.065C105.815 129.253 115.598 134.047 112.701 140.023C111.676 141.818 111.308 143.558 112.2 145.609C113.838 150.927 116.78 147.716 117.025 149.968C115.844 152.444 113.726 154.662 111.955 156.803C111.308 157.784 109.169 157.862 108.924 158.252C108.5 159.167 108.801 160.36 108.088 161.196C103.898 164.975 102.617 163.492 103.085 170.126C102.784 172.59 104.834 173.426 105.514 175.277C105.692 176.715 106.305 178.098 107.72 178.7C110.383 180.038 113.96 181.309 113.983 184.732C113.96 185.791 113.537 186.783 113.559 187.842C113.827 189.793 116.1 192.179 117.604 193.774C121.46 197.007 124.09 191.811 126.541 194.008C128.09 196.973 127.288 200.708 124.736 202.771C120.423 208.847 117.549 206.082 112.523 202.994C110.562 201.823 108.01 202.738 106.004 201.846C104.344 201.043 103.04 199.103 100.968 199.839C97.8029 200.731 95.8194 204.823 92.599 205.614C90.3258 206.082 87.6738 205.235 85.4452 205.67C83.9408 206.06 85.3672 208.067 84.186 208.691C83.4728 209.082 82.0242 208.669 81.2219 207.799C80.1967 206.896 80.0185 204.811 78.4584 204.666C77.6004 204.611 76.787 205.882 75.7506 206.517C74.7032 207.197 73.4217 207.309 72.1626 207.275C67.3933 207.108 64.0838 208.067 59.504 208.468C58.2336 208.558 55.6707 208.714 55.9604 206.874C56.1944 205.558 58.0331 204.243 57.7545 202.76C57.2308 201.623 55.4813 201.812 54.4227 201.946C52.6621 202.18 51.5701 203.34 50.6675 204.7C47.7591 207.967 47.7145 197.988 44.2936 200.318C43.547 200.887 42.8784 202.147 42.5107 203.128C39.2235 211.211 34.3539 214.143 29.8967 220.164C27.6569 222.907 29.3172 224.456 31.1336 226.519C32.3704 228.158 32.571 230.767 34.7105 231.581C40.3043 232.729 39.7695 232.829 41.1178 238.136C41.6527 239.274 42.8004 239.842 43.547 240.812C44.3716 241.749 44.4607 243.354 45.4079 244.246C46.3439 245.172 47.6922 245.573 48.5948 246.532C52.2386 253.288 42.7781 265.619 37.1286 269.064C33.7076 270.335 34.8108 274.081 33.4402 276.69C31.5124 280.113 34.0865 280.18 36.1591 281.897C37.9866 283.458 34.6436 283.235 33.8859 284.105C27.6123 291.809 22.6759 311.966 34.5433 315.2C36.4823 315.724 38.3432 316.939 38.176 319.202C38.3209 322.625 37.084 325.948 36.6494 329.37C36.2148 332.938 41.0509 334.577 40.0146 338.301C39.8586 339.728 39.2123 341.244 39.5355 342.103C39.9032 342.861 41.1067 341.958 41.7641 341.646C50.5226 337.097 59.5597 348.246 61.2311 357.935C61.4651 359.908 62.3232 362.718 64.5852 362.695C65.8555 362.695 67.059 361.77 68.2402 360.755C70.4688 359.217 71.8617 356.686 72.4077 354.021C74.3912 346.317 78.7704 343.764 81.9574 336.706C82.5145 335.558 83.2722 334.354 84.2974 333.64C86.9718 332.013 90.3593 331.935 93.3568 332.068C99.9647 332.258 98.6832 338.033 103.742 336.194C107.531 335.391 114.852 333.183 117.092 337.621C118.15 339.215 117.471 341.434 118.418 342.995C119.755 344.645 123.51 344.165 123.878 346.752C124.034 348.023 122.396 348.402 121.449 348.681C119.175 349.194 116.59 352.327 118.607 354.311C121.281 356.028 125.65 355.537 128.023 353.598C130.397 351.981 129.204 347.889 131.99 346.852C132.725 346.629 133.661 346.774 134.453 346.941C141.618 348.302 142.52 353.988 142.141 360.789C142.164 361.391 142.253 361.759 142.431 361.792C142.609 361.837 142.899 361.536 143.267 361.023C144.091 359.808 145.016 358.291 145.863 356.875C146.732 355.404 147.59 353.887 148.37 352.371C149.696 349.517 150.488 347.365 153.541 348.134C155.179 348.48 156.917 348.614 158.399 347.7C160.94 346.083 163.558 343.318 166.712 343.374C181.956 346.351 197.4 371.247 193.422 387.402C191.84 391.772 194.993 392.129 196.074 395.507C196.598 397.838 194.057 402.119 198.091 398.785C202.793 394.76 205.869 390.758 209.19 385.194C210.215 383.176 212.243 381.537 214.572 382.519C220.934 384.347 227.097 389.866 230.25 394.872C231.788 397.57 233.281 398.428 233.303 395.117C233.314 391.438 233.303 387.748 233.303 384.057C233.136 376.788 234.362 367.088 235.253 361.391C235.944 358.158 234.106 355.437 233.983 352.037C233.805 349.361 235.019 346.908 235.186 344.299C235.264 342.682 234.685 341.289 234.25 339.427C229.024 319.124 241.716 315.69 247.912 301.185C248.335 300.037 248.881 298.743 249.773 297.952C253.963 294.964 258.966 297.528 264.281 298.476C265.072 298.632 265.964 298.643 266.655 298.353C268.672 297.261 268.683 294.473 269.719 292.611C270.376 290.828 272.137 288.999 270.321 288.074C269.117 287.639 267.268 287.527 266.722 286.201C266.02 284.35 267.97 283.213 269.585 283.982C274.767 286.97 282.144 286.981 284.172 293.258C284.64 294.406 285.23 295.633 286.311 296.235C287.214 296.737 288.261 296.569 288.863 295.867C290.178 293.916 287.537 292.756 286.545 291.329C285.453 290.002 285.152 288.074 284.551 286.58C284.038 285.309 283.258 283.982 283.459 282.566C283.971 279.634 288.529 276.98 291.381 278.229C293.521 279.143 293.61 281.975 295.437 283.235C297.209 284.506 300.151 284.517 302.391 285.052C304.519 285.442 307.216 286.691 308.921 284.773C309.667 283.87 310.091 282.655 310.971 281.852C313.913 279.734 318.058 280.804 321.691 280.938C322.849 281.038 324.176 281.072 324.978 280.135C326.126 278.095 326.371 274.171 327.764 271.952C330.081 267.47 333.959 267.08 336.767 262.631C339.475 259.108 336.478 254.938 339.609 251.66C342.005 248.672 343.264 246.153 344.545 241.816C344.957 240.478 345.526 238.95 346.707 238.159C349.626 236.263 352.836 238.816 355.209 240.4C357.226 241.548 359.655 240.768 361.639 240.065C363.433 239.608 364.402 237.969 364.112 236.185C363.878 234.323 363.745 232.227 362.697 230.912C361.516 229.306 359.332 229.942 357.661 229.774C355.521 229.328 357.516 228.035 358.63 228.046C361.75 227.834 367.946 227.723 366.43 223.141C366.029 222.249 365.327 221.29 365.695 220.286C365.862 219.762 366.263 219.238 366.731 218.714C372.994 212.371 368.124 201.177 367.11 194.052C366.909 192.715 367.199 191.544 368.191 190.507C369.651 189.08 371.456 187.385 373.417 188.444C374.097 188.745 374.732 189.069 375.423 188.991C376.871 188.757 378.119 187.552 379.813 187.296C381.618 186.906 383.212 185.746 383.925 184.007C385.039 181.376 386.187 179.179 387.468 176.95C390.533 171.988 391.424 178.488 396.194 176.47C405.654 172.902 420.92 182.714 420.853 176.76C421.176 173.148 419.706 168.588 418.602 164.507C418.29 163.359 418.101 162.065 418.725 161.017C419.483 159.668 420.898 158.665 421.332 157.115C422.09 154.751 420.786 151.853 423.338 150.504C430.782 147.304 421.901 143.123 425.233 142.498C434.526 143.045 435.685 144.728 435.741 134.192C435.952 132.843 436.911 131.951 438.337 131.65C440.12 131.204 442.226 131.193 443.697 130.011C444.822 129.131 445.346 127.547 445.814 126.187C447.898 119.754 453.592 126.343 456.132 128.796C458.216 130.691 460.846 129.119 462.239 127.001C463.331 125.128 460.924 124.593 459.765 123.757C457.848 122.14 462.595 119.631 462.495 117.011C462.985 113.544 459.186 112.451 456.366 112.942L456.422 112.897ZM491.278 114.224C490.32 113.611 489.54 112.663 489.896 111.448C490.152 110.489 490.71 109.363 490.119 108.427C489.651 107.635 488.436 107.401 487.511 107.735C486.174 108.092 485.004 109.798 483.533 109.263C483.121 109.084 482.854 108.672 482.798 108.226C482.608 107.144 483.6 106.141 482.597 105.951C481.695 105.873 480.391 105.963 479.812 106.732L479.767 106.81C478.898 109.051 481.851 113.042 482.519 115.239C482.999 116.588 483.912 117.758 485.272 118.282C486.553 118.829 495.189 122.24 495.011 118.806C494.465 116.8 492.96 115.361 491.289 114.224H491.278ZM26.0077 196.561C26.654 197.052 27.4563 197.475 28.2252 197.375C29.3841 197.252 29.919 196.048 30.9441 195.513C31.6238 195.123 32.4373 194.833 32.9276 194.208C33.6408 193.305 33.5516 191.41 33.3065 190.161C32.9053 188.433 30.7101 188.333 29.2281 187.92C27.4117 187.552 25.5508 186.839 26.3754 184.966C28.3366 181.209 32.4819 176.437 30.1418 171.787C29.5958 170.695 28.3255 169.402 27.0663 169.87L26.9772 169.903C25.6288 170.561 24.6594 172.534 23.6342 173.805C22.219 175.89 20.269 177.853 19.879 180.372C19.0655 185.936 21.0379 192.848 26.0077 196.572V196.561ZM30.9218 203.384C30.2421 202.883 29.4509 202.069 29.0275 202.18L28.9718 202.202C28.6375 202.325 28.5261 203.094 28.3589 203.775C28.2029 204.711 27.7795 205.659 27.8798 206.618C27.9912 207.498 29.1166 207.989 29.9747 208.58C31.3453 209.594 33.0947 209.65 34.2648 208.279C36.1368 206.785 34.0085 205.971 32.9276 204.979C32.259 204.443 31.5904 203.919 30.933 203.384H30.9218ZM4.39005 223.542C5.39293 223.575 6.34009 223.698 7.28726 223.966C8.52415 224.3 9.79446 225.192 11.1874 225.036C12.246 224.958 13.494 224.322 13.7503 223.23C13.9731 221.97 13.1374 220.008 12.0119 219.261C10.9979 218.603 9.35988 218.703 8.02271 218.569C6.6521 218.514 5.18121 218.213 4.12261 218.681L4.02232 218.726C2.69629 219.428 1.61541 221.223 0.411949 222.316C-1.40438 224.278 3.4986 223.319 4.40119 223.542H4.39005ZM10.4296 341.278L10.3293 341.311C9.09245 341.701 8.05613 342.905 7.07554 343.953C5.49322 345.704 4.15604 347.655 2.89687 349.651C1.60426 351.602 0.668241 353.241 3.61003 352.594C6.91954 351.97 10.0508 351.736 13.6611 351.501C14.2851 351.446 14.9537 351.301 15.4552 350.955C17.4832 349.294 16.9038 345.213 16.0792 343.117C15.2212 341.066 12.3351 340.921 10.4408 341.289L10.4296 341.278ZM29.2726 343.251C27.6458 342.236 25.6066 342.047 23.5897 342.158H23.4671C20.3024 342.192 18.319 346.038 22.2079 346.986C23.0325 347.22 23.9239 347.22 24.6483 346.696C25.1051 346.406 25.5174 345.893 26.03 345.737C27.0552 345.537 26.8992 347.02 27.356 347.833C27.6569 348.48 28.6263 349.149 29.1724 348.435C29.5512 347.911 29.6181 347.164 29.7741 346.495C30.0638 345.381 30.2421 343.887 29.2726 343.262V343.251Z" fill="var(--fill-0, #F2EBE2)"/>
<path id="Vector_2" d="M212.187 300.516C217.283 300.516 221.414 296.383 221.414 291.284C221.414 286.186 217.283 282.053 212.187 282.053C207.092 282.053 202.961 286.186 202.961 291.284C202.961 296.383 207.092 300.516 212.187 300.516Z" fill="var(--fill-0, #42081A)"/>
</g>
<defs>
<clipPath id="clip0_0_89">
<rect width="495" height="400" fill="white"/>
</clipPath>
</defs>
</svg>
