<svg width="251" height="85" viewBox="0 0 251 85" fill="none" xmlns="http://www.w3.org/2000/svg">
<g id="Layer_1" clip-path="url(#clip0_0_1)">
<path id="Vector" d="M242.899 65.8953L234.502 83.9678H237.26L239.154 79.8389L240.219 77.4246L242.856 71.6425L245.37 77.4246L246.391 79.8389H246.408L248.189 83.9678H250.991L242.891 65.8953H242.899ZM113.436 83.9678H116.195L118.089 79.8389L119.154 77.4246L121.79 71.6425L124.304 77.4246L125.325 79.8389H125.343L127.124 83.9678H129.926L121.825 65.8953L113.427 83.9678H113.436ZM187.46 83.9678H190.218L192.113 79.8389L193.178 77.4246L195.814 71.6425L198.328 77.4246L199.349 79.8389H199.367L201.147 83.9678H203.949L195.849 65.8953L187.451 83.9678H187.46ZM2.13866 69.753C0.707067 71.45 0 73.3832 0 75.5439C0 77.9582 0.855464 80.0226 2.55766 81.7284C4.27732 83.4254 6.34614 84.2739 8.76414 84.2739C10.379 84.2739 11.9154 83.8628 13.3819 83.0318V79.9352C12.9629 80.2851 12.5701 80.5912 12.186 80.8362C11.8106 81.0811 11.444 81.2823 11.0948 81.431C10.4663 81.7284 9.69816 81.8684 8.79905 81.8684C7.05321 81.8684 5.5867 81.256 4.38207 80.0314C3.17744 78.8067 2.58385 77.3021 2.58385 75.5176C2.58385 73.7331 3.18617 72.1848 4.38207 70.9339C5.57797 69.6743 7.04448 69.0532 8.79032 69.0532C10.3703 69.0532 11.9067 69.6743 13.3819 70.9164V67.881C11.959 67.05 10.4925 66.6389 8.96491 66.6389C6.17156 66.6389 3.90196 67.6798 2.13866 69.753ZM23.63 83.9678H26.3884L28.2827 79.8389L29.3476 77.4246L31.9839 71.6425L34.4979 77.4246L35.5192 79.8389H35.5367L37.3174 83.9678H40.1195L32.0188 65.8953L23.6213 83.9678H23.63ZM63.1734 78.7805L50.8041 65.8079V83.9678H53.3617V72.0624L65.731 85V66.9625H63.1734V78.7805ZM99.8972 73.8556L98.2037 73.1646C96.9729 72.6572 96.3619 71.9924 96.3619 71.1614C96.3619 70.5578 96.5975 70.0592 97.0602 69.6655C97.5316 69.2631 98.1164 69.0619 98.8322 69.0619C99.4084 69.0619 99.8797 69.1757 100.246 69.4119C100.596 69.6218 100.971 70.0592 101.355 70.7327L103.433 69.4993C102.333 67.5924 100.805 66.6389 98.8497 66.6389C97.4006 66.6389 96.1873 67.0763 95.2096 67.9423C94.2319 68.7995 93.7518 69.8667 93.7518 71.1439C93.7518 73.0421 94.9128 74.4767 97.2348 75.4652L98.8671 76.1475C99.2949 76.3312 99.6615 76.5236 99.967 76.7248C100.273 76.926 100.526 77.1447 100.718 77.3721C100.91 77.5996 101.058 77.8532 101.145 78.1332C101.241 78.4131 101.285 78.7105 101.285 79.0429C101.285 79.8652 101.023 80.5475 100.491 81.0811C99.967 81.6147 99.2949 81.8859 98.5005 81.8859C97.4879 81.8859 96.7198 81.5185 96.196 80.7837C95.9079 80.3988 95.6984 79.7077 95.585 78.7105L92.9924 79.2791C93.2281 80.8624 93.8129 82.0958 94.7644 82.9706C95.7246 83.8453 96.938 84.2827 98.4132 84.2827C99.967 84.2827 101.268 83.7666 102.315 82.7431C103.354 81.7197 103.878 80.4338 103.878 78.868C103.878 77.7045 103.563 76.7161 102.918 75.9113C102.28 75.1065 101.268 74.4242 99.8972 73.8731V73.8556ZM153.145 66.9625H149.724L143.116 73.7506V66.9625H140.558V83.9678H143.116V76.9347L143.639 76.4099L149.75 83.9765H153.18L145.464 74.6691L153.137 66.9713L153.145 66.9625ZM173.912 73.6194H166.597V66.9713H164.031V83.9765H166.597V76.0338H173.912V83.9765H176.47V66.9713H173.912V73.6194ZM222.778 75.0628C223.468 74.1968 223.808 73.1646 223.808 71.9574C223.808 70.4178 223.259 69.1757 222.159 68.2397C221.164 67.3912 219.54 66.9713 217.305 66.9713H214.302V83.9765H216.86V77.0135H217.323L222.167 83.9765H225.301L220.046 76.7336C221.172 76.4886 222.08 75.9375 222.77 75.0715L222.778 75.0628ZM216.869 74.7741V69.3769H217.785C220.142 69.3769 221.321 70.2429 221.321 71.9836C221.321 73.8381 220.107 74.7741 217.681 74.7741H216.869Z" fill="white"/>
<path id="Vector_2" d="M107.413 36.2499H134.544L107.413 9.06247V36.2499ZM107.919 10.2871L133.321 35.7425H107.919V10.2871ZM143.587 0H134.544L143.587 9.06247V0ZM116.099 0L143.587 27.5461V26.8288L116.814 0H116.099Z" fill="white"/>
</g>
<defs>
<clipPath id="clip0_0_1">
<rect width="251" height="85" fill="white"/>
</clipPath>
</defs>
</svg>
