<svg preserveAspectRatio="none" width="100%" height="100%" overflow="visible" style="display: block;" viewBox="0 0 259 86" fill="none" xmlns="http://www.w3.org/2000/svg">
<g id="Layer_1" clip-path="url(#clip0_0_60)">
<path id="Vector" d="M258.814 0.184766H0.183949V85.8135H258.814V0.184766Z" stroke="var(--stroke-0, white)" stroke-width="0.34" stroke-miterlimit="10"/>
<path id="Vector_2" d="M84.4897 59.4202H88.4004C88.3024 60.3157 87.9538 61.244 87.0823 62.0848C86.0693 63.0786 84.9363 63.4827 83.5747 63.4827C82.0714 63.4827 80.7206 63.0568 79.6422 61.8992C78.6073 60.7853 78.0191 59.2018 78.0191 57.6292C78.0191 55.9256 78.6509 54.2547 79.6967 53.2173C80.4701 52.4419 81.7882 51.5901 83.847 51.5901C84.8165 51.5901 85.7533 51.7539 86.6248 52.2781C87.3764 52.704 88.0845 53.4139 88.5529 54.0691L90.4593 52.7259C90.0126 52.016 89.2065 51.0987 87.9102 50.367C86.6902 49.679 85.2196 49.3732 83.8143 49.3732C81.3851 49.3732 79.2391 50.367 77.8993 51.7321C76.6029 53.0316 75.6117 55.1612 75.6117 57.6074C75.6117 59.8789 76.4178 61.9756 77.9428 63.5591C79.3807 65.0443 81.0038 65.7105 83.2914 65.7105C85.078 65.7105 87.017 65.2846 88.6401 63.7011C90.176 62.2159 90.9713 60.0208 90.9713 57.3234V57.2033H84.4897V59.4202ZM83.9995 27.5647L85.6008 37.0548H88.0518L85.0889 20.1168L79.5768 32.348L74.1084 20.1168L70.8077 37.0548H73.2587L74.9036 27.532L79.4243 37.7864L83.9995 27.5647ZM106.614 34.7942H100.35V29.8362H106.429V27.5647H100.35V23.5787H106.614V21.3072H97.943V37.0548H106.614V34.7833V34.7942ZM34.522 60.6979L29.0535 48.4668L25.7528 65.4047H28.2038L29.8487 55.8819L34.3695 66.1364L38.9447 55.9147L40.546 65.4047H42.997L40.034 48.4668L34.522 60.6979ZM229.545 56.0239L227.966 55.3905C226.43 54.7789 226.267 53.949 226.267 53.4794C226.267 52.4638 227.018 51.5901 228.478 51.5901C229.164 51.5901 229.676 51.7539 230.177 52.158C230.526 52.4638 230.744 52.7914 230.885 53.1518L232.813 52.016C232.487 51.3499 232.04 50.8148 231.615 50.4325C231.125 50.0066 230.155 49.3732 228.456 49.3732C225.515 49.3732 223.859 51.4045 223.859 53.534C223.859 55.8928 225.765 56.9849 227.062 57.52L228.565 58.1534C229.6 58.5793 230.831 59.2346 230.831 60.8508C230.831 62.4671 229.698 63.4936 228.238 63.4936C227.301 63.4936 226.637 63.1114 226.19 62.5544C225.809 62.063 225.526 61.3313 225.526 60.545L223.151 61.0692C223.249 62.1504 223.619 63.1987 224.469 64.1379C225.275 65.0334 226.354 65.7214 228.173 65.7214C231.114 65.7214 233.238 63.6683 233.238 60.6652C233.238 58.8742 232.432 57.2142 229.535 56.0348L229.545 56.0239ZM150.079 37.3168C151.299 37.3168 152.835 36.8254 153.804 35.3293V37.0548H154.741V19.8329H153.804V29.0936C153.052 28.0125 151.821 27.2043 150.079 27.2043C147.747 27.2043 145.362 28.6677 145.362 32.1841C145.362 35.7006 147.649 37.3059 150.079 37.3059V37.3168ZM150.079 28.1108C152.453 28.1108 153.848 29.9345 153.848 32.1732C153.848 34.9798 152.028 36.4214 150.122 36.4214C148.216 36.4214 146.353 34.9798 146.353 32.1732C146.353 29.3666 148.096 28.1108 150.079 28.1108ZM155.558 60.556L144.153 48.5869V65.4047H146.56V54.3967L157.965 66.3657V49.6462H155.558V60.556ZM185.983 51.9068H189.589V65.3938H191.996V51.9068H195.602V49.6353H185.994V51.9068H185.983ZM205.253 65.3938H213.924V63.1223H207.661V58.1643H213.739V55.8928H207.661V51.9068H213.924V49.6353H205.253V65.3829V65.3938ZM174.48 34.6959L173.673 34.2263C173.063 35.504 171.887 36.4214 170.329 36.4214C168.303 36.4214 166.517 34.816 166.517 32.3589H174.741C174.741 29.2902 172.791 27.2153 170.199 27.2153C167.846 27.2153 165.536 28.9407 165.536 32.2934C165.536 35.1 167.279 37.3278 170.275 37.3278C172.649 37.3278 173.924 35.788 174.49 34.7068L174.48 34.6959ZM170.199 28.1108C172.105 28.1108 173.521 29.5523 173.761 31.4634H166.604C166.865 29.596 168.249 28.1108 170.209 28.1108H170.199ZM109.86 54.2766C109.86 53.5886 109.719 51.7212 107.998 50.5636C106.984 49.8756 105.764 49.6462 103.847 49.6462H101.048V65.3938H103.455V58.9506H103.88L108.379 65.3938H111.276L106.374 58.6667C108.466 58.1971 109.86 56.5372 109.86 54.2766ZM103.444 56.8757V51.8741H104.272C105.449 51.8741 107.551 52.0815 107.551 54.3094C107.551 56.8102 104.86 56.8866 104.207 56.8866H103.455L103.444 56.8757ZM168.325 65.3938H176.996V63.1223H170.732V58.1643H176.811V55.8928H170.732V51.9068H176.996V49.6353H168.325V65.3829V65.3938ZM123.815 34.7942H119.196V21.3072H116.788V37.0548H123.804V34.7833L123.815 34.7942ZM51.6572 65.3938H54.2062L55.9492 61.5825L56.9296 59.3547L59.3588 54.0145L61.6791 59.3547L62.6268 61.5825H62.6486L64.2935 65.3938H66.8752L59.4024 48.718L51.6572 65.3938ZM119.915 65.3938H122.464L124.207 61.5825L125.187 59.3547L127.616 54.0145L129.937 59.3547L130.884 61.5825H130.906L132.551 65.3938H135.133L127.66 48.718L119.915 65.3938Z" fill="var(--fill-0, white)"/>
</g>
<defs>
<clipPath id="clip0_0_60">
<rect width="259" height="86" fill="white"/>
</clipPath>
</defs>
</svg>
