<svg preserveAspectRatio="none" width="100%" height="100%" overflow="visible" style="display: block;" viewBox="0 0 170 170" fill="none" xmlns="http://www.w3.org/2000/svg">
<g id="play_circle">
<path id="_shape" d="M75.4375 111.563L109.969 89.4271C111.622 88.3646 112.448 86.8889 112.448 85C112.448 83.1111 111.622 81.6354 109.969 80.5729L75.4375 58.4375C73.6667 57.2569 71.8663 57.1684 70.0365 58.1719C68.2066 59.1754 67.2917 60.7396 67.2917 62.8646V107.135C67.2917 109.26 68.2066 110.825 70.0365 111.828C71.8663 112.832 73.6667 112.743 75.4375 111.563ZM85 155.833C75.2014 155.833 65.9931 153.974 57.375 150.255C48.7569 146.536 41.2604 141.49 34.8854 135.115C28.5104 128.74 23.4635 121.243 19.7448 112.625C16.026 104.007 14.1667 94.7986 14.1667 85C14.1667 75.2014 16.026 65.9931 19.7448 57.375C23.4635 48.7569 28.5104 41.2604 34.8854 34.8854C41.2604 28.5104 48.7569 23.4635 57.375 19.7448C65.9931 16.026 75.2014 14.1667 85 14.1667C94.7986 14.1667 104.007 16.026 112.625 19.7448C121.243 23.4635 128.74 28.5104 135.115 34.8854C141.49 41.2604 146.536 48.7569 150.255 57.375C153.974 65.9931 155.833 75.2014 155.833 85C155.833 94.7986 153.974 104.007 150.255 112.625C146.536 121.243 141.49 128.74 135.115 135.115C128.74 141.49 121.243 146.536 112.625 150.255C104.007 153.974 94.7986 155.833 85 155.833Z" fill="var(--fill-0, #AC9A8C)"/>
</g>
</svg>
